:FULLY-SPECIFIED
:FORCE-ALL-JOINTS-BE-3DOF
:DEGREES
388
root 9.45848 17.0688 18.1255 6.14106 -0.297163 -4.93316
lfemur -41.3082 2.92795 -15.6929
ltibia 29.7493 -0 0
lfoot -14.7632 9.27034 0.00206915
ltoes -15.1415 0 0
rfemur 2.18607 5.67892 31.32
rtibia 14.5967 -0 0
rfoot -16.1156 5.25962 -5.04471e-05
rtoes -16.404 0 0
lowerback -6.82591 2.46153 1.41587
upperback -0.0317357 3.04201 3.33864
thorax 3.68659 1.51023 2.96188
lowerneck -19.279 -6.21479 -13.1818
upperneck 21.543 -8.09545 13.2042
head 11.3026 -3.24428 5.8076
lclavicle -1.80397e-14 1.98785e-16 0
lhumerus -50.2438 -11.4888 95.308
lradius 26.25 -0 0
lwrist 9.49654 0 0
lhand -13.7435 -22.2337 0.011668
lfingers 7.12502 0 0
lthumb 12.3763 7.37724 0.0107082
rclavicle -1.80397e-14 1.98785e-16 0
rhumerus -27.2642 16.7381 -83.0571
rradius 43.1623 -0 0
rwrist -21.5011 0 0
rhand -32.2643 -23.2154 -0.00129073
rfingers 7.12502 0 0
rthumb -5.50394 -53.1242 -0.00122503
389
root 9.46801 17.0631 18.2589 6.07748 -0.452052 -5.23241
lfemur -41.3692 2.68721 -15.2059
ltibia 28.1625 -0 0
lfoot -14.8845 9.36403 0.00222227
ltoes -15.7183 0 0
rfemur 3.42788 5.71387 31.6198
rtibia 13.2668 -0 0
rfoot -15.658 5.43482 -0.000155497
rtoes -15.696 0 0
lowerback -6.83148 2.56111 1.65811
upperback 0.0504707 3.14888 3.43042
thorax 3.77866 1.56612 2.93605
lowerneck -19.3663 -6.24058 -13.2322
upperneck 21.5174 -8.11381 13.2456
head 11.3176 -3.24905 5.82773
lclavicle -2.38293e-14 -1.45775e-15 0
lhumerus -50.4711 -11.3352 95.3436
lradius 26.3645 -0 0
lwrist 9.67072 0 0
lhand -13.2649 -21.8301 0.00976562
lfingers 7.12502 0 0
lthumb 12.8377 7.75269 0.00893045
rclavicle -2.38293e-14 -1.45775e-15 0
rhumerus -26.8858 16.587 -83.0798
rradius 42.7529 -0 0
rwrist -21.3315 0 0
rhand -32.3022 -22.7395 -0.00101497
rfingers 7.12502 0 0
rthumb -5.54046 -52.6474 -0.000953645
390
root 9.47753 17.0574 18.3924 6.02493 -0.597476 -5.51914
lfemur -41.4316 2.34414 -14.665
ltibia 26.6949 -0 0
lfoot -15.0062 9.58941 0.00156997
ltoes -16.2469 0 0
rfemur 4.69807 5.75004 31.8964
rtibia 11.865 -0 0
rfoot -15.1216 5.5967 -0.000144897
rtoes -14.9601 0 0
lowerback -6.84701 2.65733 1.89481
upperback 0.126246 3.25144 3.51711
thorax 3.87024 1.61999 2.90837
lowerneck -19.4428 -6.26553 -13.2816
upperneck 21.4953 -8.13034 13.2777
head 11.331 -3.25435 5.84454
lclavicle -2.96189e-14 -3.11429e-15 0
lhumerus -50.6916 -11.1853 95.3863
lradius 26.4706 -0 0
lwrist 9.7979 0 0
lhand -12.8393 -21.6177 0.00468288
lfingers 7.12502 0 0
lthumb 13.248 7.94009 0.00426466
rclavicle -2.96189e-14 -3.11429e-15 0
rhumerus -26.5545 16.4413 -83.1124
rradius 42.3685 -0 0
rwrist -21.1629 0 0
rhand -32.298 -22.3328 -0.000449054
rfingers 7.12502 0 0
rthumb -5.53648 -52.2408 -0.000412722
391
root 9.48706 17.0517 18.5259 5.99963 -0.73729 -5.76612
lfemur -41.5197 1.85283 -14.0762
ltibia 25.3853 0 0
lfoot -15.1155 9.99041 0
ltoes -16.6809 0 0
rfemur 5.98129 5.7848 32.1148
rtibia 10.3882 0 0
rfoot -14.4814 5.74206 0
rtoes -14.2254 0 0
lowerback -6.88938 2.75178 2.10373
upperback 0.187041 3.35339 3.58934
thorax 3.9613 1.67337 2.88231
lowerneck -19.4876 -6.28664 -13.3307
upperneck 21.4778 -8.14292 13.299
head 11.3387 -3.26018 5.85814
lclavicle -3.54085e-14 -4.77083e-15 0
lhumerus -50.9077 -11.0319 95.4366
lradius 26.547 0 0
lwrist 9.84139 0 0
lhand -12.5494 -21.725 0
lfingers 7.12502 0 0
lthumb 13.5275 7.81564 0
rclavicle -3.54085e-14 -4.77083e-15 0
rhumerus -26.2964 16.2992 -83.153
rradius 42.0452 0 0
rwrist -20.9921 0 0
rhand -32.2316 -22.0431 0
rfingers 7.12502 0 0
rthumb -5.47233 -51.9525 0
392
root 9.50246 17.0404 18.6662 6.00083 -0.872194 -5.97744
lfemur -41.6343 1.1294 -13.3756
ltibia 24.2144 -0 0
lfoot -15.2162 10.6901 -0.00245704
ltoes -17.0842 0 0
rfemur 7.35357 5.82919 32.2741
rtibia 8.68672 -0 0
rfoot -13.6537 5.86567 0.000589393
rtoes -13.4051 0 0
lowerback -6.95912 2.84957 2.29442
upperback 0.235318 3.46048 3.64729
thorax 4.05532 1.72928 2.85374
lowerneck -19.5039 -6.30841 -13.3847
upperneck 21.4699 -8.15592 13.3074
head 11.344 -3.26904 5.86807
lclavicle -3.02898e-14 -7.55381e-15 0
lhumerus -51.1122 -10.8766 95.4963
lradius 26.5902 -0 0
lwrist 9.78289 0 0
lhand -12.4079 -22.259 -0.00181456
lfingers 7.12502 0 0
lthumb 13.6639 7.27322 -0.00160935
rclavicle -3.02898e-14 -7.55381e-15 0
rhumerus -26.1092 16.1574 -83.1964
rradius 41.7859 -0 0
rwrist -20.8291 0 0
rhand -32.0724 -21.9062 -0.000142654
rfingers 7.12502 0 0
rthumb -5.31861 -51.8191 -0.000175393
